<?xml version="1.0" encoding="UTF-8" standalone="no"?>
<!-- Created with Inkscape (http://www.inkscape.org/) -->

<svg
   width="500"
   height="600"
   viewBox="0 0 132.29166 158.75"
   version="1.1"
   id="svg190"
   sodipodi:docname="logo.svg"
   inkscape:export-filename="/home/sarmad/Projects/MyLogos/newlogo2.png"
   inkscape:export-xdpi="99.951103"
   inkscape:export-ydpi="99.951103"
   inkscape:version="1.1.2 (0a00cf5339, 2022-02-04)"
   xmlns:inkscape="http://www.inkscape.org/namespaces/inkscape"
   xmlns:sodipodi="http://sodipodi.sourceforge.net/DTD/sodipodi-0.dtd"
   xmlns="http://www.w3.org/2000/svg"
   xmlns:svg="http://www.w3.org/2000/svg">
  <sodipodi:namedview
     id="namedview192"
     pagecolor="#ffffff"
     bordercolor="#666666"
     borderopacity="1.0"
     inkscape:pageshadow="2"
     inkscape:pageopacity="0.0"
     inkscape:pagecheckerboard="0"
     inkscape:document-units="px"
     showgrid="true"
     units="px"
     inkscape:snap-bbox="true"
     inkscape:bbox-paths="false"
     inkscape:bbox-nodes="false"
     inkscape:object-nodes="true"
     inkscape:object-paths="true"
     inkscape:snap-midpoints="false"
     inkscape:snap-page="true"
     showguides="true"
     inkscape:guide-bbox="true"
     inkscape:zoom="0.6904444"
     inkscape:cx="174.52528"
     inkscape:cy="286.77182"
     inkscape:window-width="1366"
     inkscape:window-height="711"
     inkscape:window-x="0"
     inkscape:window-y="0"
     inkscape:window-maximized="1"
     inkscape:current-layer="layer1"
     inkscape:snap-smooth-nodes="true"
     inkscape:snap-intersection-paths="true" />
  <defs
     id="defs187" />
  <g
     inkscape:label="Layer 1"
     inkscape:groupmode="layer"
     id="layer1">
    <g
       id="g834"
       transform="matrix(0.27586206,0,0,0.27586206,12.021109,52.556362)"
       style="fill:#f8f9fa;stroke:none;fill-opacity:1">
      <path
         style="color:#000000;fill:#f8f9fa;stroke-linecap:round;stroke-linejoin:round;-inkscape-stroke:none;stroke:none;fill-opacity:1"
         d="m 196.25,-94.605469 c -24.7786,-1.1e-5 -44.97852,20.199908 -44.97852,44.978516 2e-5,24.720687 20.10954,44.8980412 44.83008,44.9804686 a 5.2916498,5.2916498 0 0 0 0.11719,-0.048828 5.2916498,5.2916498 0 0 0 0.0488,0.021484 c 19.01342,0.063407 34.28125,15.3829471 34.28125,34.3964841 -1e-5,4.365218 -0.82979,8.689648 -2.44727,12.744141 a 5.2916498,5.2916498 0 0 0 2.95313,6.875 5.2916498,5.2916498 0 0 0 6.87695,-2.953125 c 2.11511,-5.301908 3.20117,-10.957784 3.20117,-16.666016 1e-5,-24.7206916 -20.10952,-44.896075 -44.83008,-44.978515 a 5.2916498,5.2916498 0 0 0 -0.0957,0.03906 5.2916498,5.2916498 0 0 0 -0.0703,-0.01367 c -19.01342,-0.0634 -34.28124,-15.382951 -34.28125,-34.396484 -1e-5,-19.058972 15.33556,-34.39454 34.39453,-34.394531 18.11196,2e-6 33.04457,13.920748 34.3125,31.988281 a 5.2916498,5.2916498 0 0 0 5.64844,4.908203 5.2916498,5.2916498 0 0 0 4.9082,-5.650391 C 239.46918,-76.286801 219.81923,-94.605466 196.25,-94.605469 Z m -0.0488,52.890625 c -6.63031,0 -13.22775,0.922672 -19.60351,2.742188 a 5.2916498,5.2916498 0 0 0 -3.63672,6.541015 5.2916498,5.2916498 0 0 0 6.54101,3.636719 c 5.43123,-1.549964 11.05116,-2.337891 16.69922,-2.33789 33.67147,-2e-6 60.85546,27.1839913 60.85547,60.855468 0,14.925273 -5.35882,28.559678 -14.23828,39.132813 l -34.9375,-34.9375 a 5.292179,5.292179 0 0 0 -7.48242,7.484375 l 34.9375,34.935547 c -10.57326,8.87992 -24.20907,14.238282 -39.13477,14.238281 -33.67148,1.2e-5 -60.85351,-27.182026 -60.85351,-60.853516 0,-16.619896 6.79348,-32.5111992 18.80859,-43.99414 a 5.2916498,5.2916498 0 0 0 0.16992,-7.482422 5.2916498,5.2916498 0 0 0 -7.48047,-0.167969 c -14.10101,13.4764504 -22.08203,32.139319 -22.08203,51.644531 0,39.391124 32.04638,71.437514 71.4375,71.437504 17.79439,0 34.0526,-6.58276 46.57227,-17.384769 l 15.35547,15.355468 a 5.292179,5.292179 0 0 0 8.79296,-2.40039 5.292179,5.292179 0 0 0 -1.31054,-5.082032 L 250.25586,76.292969 c 10.80201,-12.519665 17.38281,-28.775926 17.38281,-46.570313 -10e-6,-39.3911091 -32.04639,-71.437502 -71.4375,-71.4375 z m -40.00781,68.9375 a 5.2916498,5.2916498 0 0 0 -4.9082,5.648438 c 1.64996,23.51141 21.29991,41.830082 44.86914,41.830078 5.52379,-3e-6 10.99912,-1.017908 16.15429,-3.001953 a 5.2916498,5.2916498 0 0 0 3.03907,-6.837891 5.2916498,5.2916498 0 0 0 -6.83985,-3.039062 c -3.94227,1.517241 -8.12935,2.294919 -12.35351,2.294921 -18.11197,3e-6 -33.04457,-13.918795 -34.3125,-31.986328 a 5.2916498,5.2916498 0 0 0 -5.64844,-4.908203 z"
         id="path8951" />
      <g
         id="g208686"
         transform="translate(-68.381205,-160.75119)"
         style="fill:#f8f9fa;stroke:none;fill-opacity:1">
        <g
           id="g208422"
           transform="matrix(1,0,0,1.0091735,0,328.08333)"
           style="fill:#f8f9fa;stroke:none;fill-opacity:1">
          <g
             aria-label="Sarmad Qassab"
             id="text101492"
             style="font-size:52.9167px;letter-spacing:1.32292px;fill:#f8f9fa;stroke-width:0.264583;stroke:none;fill-opacity:1"
             transform="matrix(1.0183576,0,0,1.0298654,-12.940364,-196.58669)">
            <path
               d="m 89.778464,212.27504 q 3.122086,0 4.81542,0.68792 1.693334,0.635 2.910418,1.37583 0.635001,0.37042 1.005418,0.58208 0.423333,0.15875 0.79375,0.15875 0.529167,0 0.74083,-0.58208 0.26459,-0.58208 0.42334,-1.74625 h 1.21708 q -0.0529,1.00542 -0.15875,2.43417 -0.0529,1.37583 -0.10583,3.65125 0,2.27542 0,5.97959 h -1.21709 q -0.211663,-2.75167 -1.269997,-5.34459 -1.058334,-2.59292 -3.016252,-4.23334 -1.905001,-1.69333 -4.709586,-1.69333 -2.540001,0 -4.180419,1.42875 -1.640418,1.42875 -1.640418,3.96875 0,2.11667 1.058334,3.65126 1.058334,1.48166 3.069169,2.91041 2.063751,1.42875 4.97417,3.43959 2.540001,1.64042 4.550836,3.28083 2.010833,1.64042 3.227923,3.70417 1.21708,2.06375 1.21708,4.92126 0,3.4925 -1.85209,5.76792 -1.799163,2.27541 -4.762498,3.43958 -2.963335,1.11125 -6.508754,1.11125 -3.280835,0 -5.238753,-0.635 -1.957918,-0.635 -3.280835,-1.32292 -1.164168,-0.74083 -1.799168,-0.74083 -0.529167,0 -0.793751,0.58208 -0.211666,0.58209 -0.370416,1.74626 H 77.66054 q 0.105834,-1.27001 0.105834,-2.96334 0.05292,-1.69333 0.05292,-4.39209 0.05292,-2.75166 0.05292,-6.93208 h 1.217084 q 0.211667,3.4925 1.164168,6.56167 1.005417,3.01625 3.016252,4.86833 2.063751,1.85209 5.450419,1.85209 1.852085,0 3.280836,-0.635 1.481667,-0.68792 2.381251,-2.01084 0.899584,-1.32291 0.899584,-3.28083 0,-2.2225 -1.058334,-3.86292 -1.005417,-1.64042 -2.804585,-3.06917 -1.746251,-1.42875 -4.074586,-2.91042 -2.487085,-1.64042 -4.656669,-3.28083 -2.169585,-1.64042 -3.492502,-3.75709 -1.270001,-2.11667 -1.270001,-5.02709 0,-3.33375 1.640418,-5.45042 1.693334,-2.16958 4.392086,-3.175 2.751668,-1.05833 5.820836,-1.05833 z"
               style="-inkscape-font-specification:'Playfair Display Bold';fill:#f8f9fa;stroke:none;fill-opacity:1"
               id="path126221" />
            <path
               d="m 115.54888,250.7984 q -2.38125,0 -3.96875,-0.89959 -1.5875,-0.89958 -2.32834,-2.38125 -0.74083,-1.53458 -0.74083,-3.33375 0,-2.27542 1.00542,-3.70417 1.05833,-1.42875 2.69875,-2.32834 1.64042,-0.89958 3.43958,-1.48166 1.85209,-0.58209 3.49251,-1.11125 1.69333,-0.58209 2.69875,-1.32292 1.05833,-0.79375 1.05833,-2.01084 v -4.1275 q 0,-1.37583 -0.47625,-2.43417 -0.42333,-1.11125 -1.37583,-1.69333 -0.89959,-0.58208 -2.38125,-0.58208 -1.05834,0 -2.11667,0.3175 -1.05834,0.26458 -1.74625,0.9525 1.48166,0.52916 2.27541,1.64041 0.84667,1.05834 0.84667,2.43417 0,1.79917 -1.27,2.8575 -1.21708,1.05834 -2.91042,1.05834 -1.905,0 -2.91042,-1.16417 -0.9525,-1.21708 -0.9525,-2.91042 0,-1.53458 0.74084,-2.54 0.79375,-1.00542 2.16958,-1.905 1.48167,-0.84667 3.54542,-1.32292 2.11667,-0.47625 4.55084,-0.47625 2.43417,0 4.39208,0.52917 1.95792,0.47625 3.28084,1.79917 1.21708,1.21708 1.5875,3.01625 0.37042,1.74625 0.37042,4.445 v 14.39334 q 0,1.32292 0.26458,1.85209 0.26458,0.47625 0.89958,0.47625 0.47625,0 0.89959,-0.26459 0.47625,-0.26458 1.00541,-0.635 l 0.52917,0.89959 q -1.11125,0.9525 -2.59292,1.48167 -1.42875,0.47625 -3.22791,0.47625 -1.95792,0 -3.12209,-0.52917 -1.16417,-0.58209 -1.69333,-1.53459 -0.47625,-0.9525 -0.47625,-2.2225 -1.27001,2.01084 -3.06917,3.175 -1.79917,1.11126 -4.39209,1.11126 z m 3.75709,-3.38667 q 1.05833,0 1.905,-0.47625 0.89958,-0.52917 1.69333,-1.69334 v -10.84792 q -0.47625,0.79375 -1.32292,1.42875 -0.84666,0.635 -1.79916,1.32292 -0.9525,0.635 -1.85209,1.42875 -0.84667,0.79375 -1.37583,1.95792 -0.52917,1.16416 -0.52917,2.80458 0,2.06375 0.89958,3.06917 0.89959,1.00542 2.38126,1.00542 z"
               style="-inkscape-font-specification:'Playfair Display Bold';fill:#f8f9fa;stroke:none;fill-opacity:1"
               id="path126223" />
            <path
               d="m 155.18347,222.32921 q 1.69333,0 2.75167,0.74084 1.05833,0.68791 1.53458,1.79916 0.52917,1.11125 0.52917,2.32834 0,1.95792 -1.16417,3.22792 -1.11125,1.21708 -2.96333,1.21708 -1.85209,0 -2.91042,-0.89958 -1.00542,-0.9525 -1.00542,-2.48709 0,-1.48167 0.635,-2.43417 0.68792,-1.00541 1.69334,-1.69333 -0.74084,-0.21167 -1.48167,0.0529 -1.00542,0.15875 -1.905,0.84666 -0.89959,0.635 -1.53459,1.64042 -0.635,0.9525 -1.00541,2.11667 -0.37042,1.11125 -0.37042,2.16958 v 14.02293 q 0,2.54 1.21708,3.43958 1.27,0.89959 3.75709,0.89959 v 1.11125 q -1.21709,-0.0529 -3.54542,-0.10583 -2.32833,-0.10584 -4.86834,-0.10584 -2.11666,0 -4.28625,0.10584 -2.16958,0.0529 -3.28083,0.10583 v -1.11125 q 1.85208,0 2.59291,-0.79375 0.79375,-0.79375 0.79375,-3.01625 v -16.66876 q 0,-2.38126 -0.74083,-3.49251 -0.68792,-1.16416 -2.64583,-1.16416 v -1.11125 q 1.69333,0.15875 3.28083,0.15875 2.2225,0 4.1275,-0.15875 1.95792,-0.21167 3.59834,-0.58209 v 4.92125 q 0.635,-1.42875 1.69333,-2.59291 1.05834,-1.16417 2.43417,-1.79917 1.37584,-0.68792 3.06917,-0.68792 z"
               style="-inkscape-font-specification:'Playfair Display Bold';fill:#f8f9fa;stroke:none;fill-opacity:1"
               id="path126225" />
            <path
               d="m 182.22386,222.32921 q 2.2225,0 3.59833,0.58209 1.37584,0.52916 2.2225,1.48166 0.84667,1.00542 1.21709,2.64584 0.37041,1.5875 0.37041,4.23333 v 14.2346 q 0,2.2225 0.68792,3.01625 0.68792,0.79375 2.38125,0.79375 v 1.11125 q -0.9525,-0.0529 -2.91042,-0.10583 -1.905,-0.10584 -3.75708,-0.10584 -1.905,0 -3.75709,0.10584 -1.85208,0.0529 -2.80458,0.10583 v -1.11125 q 1.42875,0 1.95792,-0.79375 0.58208,-0.79375 0.58208,-3.01625 v -16.4571 q 0,-1.32292 -0.21167,-2.27542 -0.21166,-1.00541 -0.84666,-1.53458 -0.58209,-0.58208 -1.79917,-0.58208 -1.37584,0 -2.54,0.79375 -1.16417,0.79375 -1.905,2.2225 -0.68792,1.37583 -0.68792,3.12208 v 14.71085 q 0,2.2225 0.58208,3.01625 0.58209,0.79375 1.95792,0.79375 v 1.11125 q -0.84667,-0.0529 -2.64584,-0.10583 -1.74625,-0.10584 -3.59833,-0.10584 -2.01084,0 -4.1275,0.10584 -2.11667,0.0529 -3.175,0.10583 v -1.11125 q 1.85208,0 2.59291,-0.79375 0.79375,-0.79375 0.79375,-3.01625 v -16.66876 q 0,-2.38126 -0.74083,-3.49251 -0.68792,-1.16416 -2.64583,-1.16416 v -1.11125 q 1.69333,0.15875 3.28083,0.15875 2.2225,0 4.1275,-0.15875 1.95792,-0.21167 3.59834,-0.58209 v 4.7625 q 1.27,-2.64583 3.43958,-3.75708 2.16959,-1.16417 4.76251,-1.16417 z m 15.92792,0 q 2.2225,0 3.59834,0.58209 1.37583,0.52916 2.2225,1.48166 0.84667,1.00542 1.21708,2.64584 0.37042,1.5875 0.37042,4.23333 v 14.2346 q 0,2.2225 0.74083,3.01625 0.79375,0.79375 2.64584,0.79375 v 1.11125 q -1.00542,-0.0529 -3.01625,-0.10583 -2.01084,-0.10584 -3.96875,-0.10584 -1.90501,0 -3.75709,0.10584 -1.85208,0.0529 -2.80459,0.10583 v -1.11125 q 1.42876,0 1.95792,-0.79375 0.58209,-0.79375 0.58209,-3.01625 v -16.4571 q 0,-1.32292 -0.26459,-2.27542 -0.21166,-1.00541 -0.89958,-1.53458 -0.635,-0.58208 -2.01084,-0.58208 -1.37583,0 -2.54,0.84666 -1.16416,0.84667 -1.905,2.27542 -0.68792,1.42875 -0.74083,3.175 l -0.26459,-3.22792 q 1.42876,-3.175 3.75709,-4.28625 2.38125,-1.11125 5.08,-1.11125 z"
               style="-inkscape-font-specification:'Playfair Display Bold';fill:#f8f9fa;stroke:none;fill-opacity:1"
               id="path126227" />
            <path
               d="m 219.53007,250.7984 q -2.38125,0 -3.96875,-0.89959 -1.5875,-0.89958 -2.32834,-2.38125 -0.74083,-1.53458 -0.74083,-3.33375 0,-2.27542 1.00542,-3.70417 1.05833,-1.42875 2.69875,-2.32834 1.64042,-0.89958 3.43958,-1.48166 1.85209,-0.58209 3.49251,-1.11125 1.69333,-0.58209 2.69875,-1.32292 1.05833,-0.79375 1.05833,-2.01084 v -4.1275 q 0,-1.37583 -0.47625,-2.43417 -0.42333,-1.11125 -1.37583,-1.69333 -0.89959,-0.58208 -2.38125,-0.58208 -1.05834,0 -2.11667,0.3175 -1.05834,0.26458 -1.74625,0.9525 1.48166,0.52916 2.27541,1.64041 0.84667,1.05834 0.84667,2.43417 0,1.79917 -1.27,2.8575 -1.21708,1.05834 -2.91042,1.05834 -1.905,0 -2.91042,-1.16417 -0.9525,-1.21708 -0.9525,-2.91042 0,-1.53458 0.74084,-2.54 0.79375,-1.00542 2.16958,-1.905 1.48167,-0.84667 3.54542,-1.32292 2.11667,-0.47625 4.55084,-0.47625 2.43417,0 4.39208,0.52917 1.95792,0.47625 3.28084,1.79917 1.21708,1.21708 1.5875,3.01625 0.37042,1.74625 0.37042,4.445 v 14.39334 q 0,1.32292 0.26458,1.85209 0.26458,0.47625 0.89958,0.47625 0.47625,0 0.89959,-0.26459 0.47625,-0.26458 1.00541,-0.635 l 0.52917,0.89959 q -1.11125,0.9525 -2.59292,1.48167 -1.42875,0.47625 -3.22792,0.47625 -1.95791,0 -3.12208,-0.52917 -1.16417,-0.58209 -1.69333,-1.53459 -0.47626,-0.9525 -0.47626,-2.2225 -1.27,2.01084 -3.06916,3.175 -1.79917,1.11126 -4.39209,1.11126 z m 3.75709,-3.38667 q 1.05833,0 1.905,-0.47625 0.89958,-0.52917 1.69333,-1.69334 v -10.84792 q -0.47625,0.79375 -1.32292,1.42875 -0.84666,0.635 -1.79916,1.32292 -0.9525,0.635 -1.85209,1.42875 -0.84667,0.79375 -1.37583,1.95792 -0.52917,1.16416 -0.52917,2.80458 0,2.06375 0.89958,3.06917 0.89959,1.00542 2.38126,1.00542 z"
               style="-inkscape-font-specification:'Playfair Display Bold';fill:#f8f9fa;stroke:none;fill-opacity:1"
               id="path126229" />
            <path
               d="m 266.99633,208.9942 v 35.61294 q 0,2.38125 0.74083,3.54542 0.74084,1.11125 2.64584,1.11125 v 1.11125 q -1.64042,-0.15875 -3.28084,-0.15875 -2.2225,0 -4.18041,0.15875 -1.90501,0.15875 -3.54542,0.58209 v -35.61294 q 0,-2.38125 -0.74084,-3.4925 -0.68791,-1.16417 -2.64583,-1.16417 v -1.11125 q 1.69333,0.15875 3.28083,0.15875 2.16959,0 4.12751,-0.15875 1.95791,-0.21167 3.59833,-0.58209 z m -13.49376,13.33501 q 2.32834,0 4.07459,0.79375 1.79917,0.74084 2.80458,2.54 l -0.635,0.58209 q -0.68791,-1.27 -1.85208,-1.79917 -1.11125,-0.58208 -2.38125,-0.58208 -2.69875,0 -4.28626,3.175 -1.5875,3.12208 -1.53458,9.68375 0,4.49792 0.58208,7.19667 0.635,2.64584 1.74626,3.81001 1.16416,1.16416 2.64583,1.16416 1.79917,0 3.22792,-1.42875 1.42875,-1.42875 1.53458,-3.86292 l 0.26459,1.85209 q -0.79375,2.80458 -2.59292,4.28625 -1.74625,1.42875 -4.60375,1.42875 -3.12209,0 -5.60917,-1.53458 -2.43417,-1.53459 -3.81001,-4.70959 -1.37583,-3.22792 -1.37583,-8.30792 0,-4.81542 1.53458,-7.9375 1.53459,-3.17501 4.18042,-4.76251 2.69875,-1.5875 6.08542,-1.5875 z"
               style="-inkscape-font-specification:'Playfair Display Bold';fill:#f8f9fa;stroke:none;fill-opacity:1"
               id="path126231" />
            <path
               d="m 326.73926,249.79298 0.9525,0.26458 q -0.42334,2.91042 -1.32292,4.97417 -0.89959,2.11667 -2.32834,3.28084 -1.11125,0.89958 -2.91041,1.48166 -1.74626,0.58209 -3.91584,0.58209 -2.91042,0 -5.715,-0.89959 -2.75167,-0.89958 -5.60917,-2.2225 -2.85751,-1.27 -6.03251,-2.48708 -0.37041,-0.10584 -0.74083,-0.26459 -0.3175,-0.10583 -0.52917,-0.10583 -1.00542,0.47625 -2.2225,0.79375 -1.16417,0.3175 -2.2225,0.3175 -1.05833,0 -1.79917,-0.3175 -0.68792,-0.3175 -0.68792,-1.05833 0,-1.42875 2.91042,-1.42875 1.85209,0 4.02167,0.74083 1.95792,-0.52917 3.33375,-1.21708 1.42875,-0.635 2.91042,-1.21709 1.53459,-0.58208 3.70417,-0.74083 l 0.0529,0.84667 q -1.69334,0.15875 -2.91042,0.58208 -1.16417,0.47625 -2.38125,1.00542 -1.21709,0.52916 -2.8575,1.00541 3.75708,0.26459 6.985,0.52917 3.22792,0.3175 5.97959,0.37042 2.75167,0.10583 4.97417,-0.21167 3.28083,-0.37042 5.18583,-1.42875 1.905,-1.05833 3.17501,-3.175 z m -19.42043,-37.57086 q 5.60917,0 9.78959,2.27542 4.23333,2.27542 6.56167,6.56167 2.32833,4.23334 2.32833,10.31876 0,5.92667 -2.38125,10.37167 -2.38125,4.445 -6.6675,6.93209 -4.23334,2.48708 -9.68376,2.48708 -5.60917,0 -9.84251,-2.27542 -4.18041,-2.27541 -6.50875,-6.56167 -2.32833,-4.28625 -2.32833,-10.31875 0,-5.92667 2.38125,-10.37168 2.43417,-4.445 6.61458,-6.93208 4.23334,-2.48709 9.73668,-2.48709 z m -0.21167,0.9525 q -2.96333,0 -5.18584,2.38125 -2.16958,2.38126 -3.38666,6.56167 -1.16417,4.18042 -1.16417,9.68376 0,5.60917 1.32292,9.78959 1.37583,4.1275 3.65125,6.40292 2.32833,2.2225 5.13292,2.2225 2.96333,0 5.13292,-2.38125 2.2225,-2.38125 3.38667,-6.56167 1.21708,-4.23334 1.21708,-9.68376 0,-5.66208 -1.37583,-9.78959 -1.32292,-4.1275 -3.65126,-6.35 -2.27541,-2.27542 -5.08,-2.27542 z"
               style="-inkscape-font-specification:'Playfair Display Bold';fill:#f8f9fa;stroke:none;fill-opacity:1"
               id="path126233" />
            <path
               d="m 337.94697,250.7984 q -2.38125,0 -3.96875,-0.89959 -1.5875,-0.89958 -2.32834,-2.38125 -0.74083,-1.53458 -0.74083,-3.33375 0,-2.27542 1.00542,-3.70417 1.05833,-1.42875 2.69875,-2.32834 1.64042,-0.89958 3.43958,-1.48166 1.85209,-0.58209 3.49251,-1.11125 1.69333,-0.58209 2.69875,-1.32292 1.05833,-0.79375 1.05833,-2.01084 v -4.1275 q 0,-1.37583 -0.47625,-2.43417 -0.42333,-1.11125 -1.37583,-1.69333 -0.89959,-0.58208 -2.38125,-0.58208 -1.05834,0 -2.11667,0.3175 -1.05834,0.26458 -1.74625,0.9525 1.48166,0.52916 2.27542,1.64041 0.84666,1.05834 0.84666,2.43417 0,1.79917 -1.27,2.8575 -1.21708,1.05834 -2.91042,1.05834 -1.905,0 -2.91042,-1.16417 -0.9525,-1.21708 -0.9525,-2.91042 0,-1.53458 0.74084,-2.54 0.79375,-1.00542 2.16958,-1.905 1.48167,-0.84667 3.54542,-1.32292 2.11667,-0.47625 4.55084,-0.47625 2.43417,0 4.39208,0.52917 1.95792,0.47625 3.28084,1.79917 1.21708,1.21708 1.5875,3.01625 0.37042,1.74625 0.37042,4.445 v 14.39334 q 0,1.32292 0.26458,1.85209 0.26458,0.47625 0.89958,0.47625 0.47625,0 0.89959,-0.26459 0.47625,-0.26458 1.00542,-0.635 l 0.52916,0.89959 q -1.11125,0.9525 -2.59292,1.48167 -1.42875,0.47625 -3.22791,0.47625 -1.95792,0 -3.12209,-0.52917 -1.16417,-0.58209 -1.69333,-1.53459 -0.47625,-0.9525 -0.47625,-2.2225 -1.27001,2.01084 -3.06917,3.175 -1.79917,1.11126 -4.39209,1.11126 z m 3.75709,-3.38667 q 1.05833,0 1.905,-0.47625 0.89958,-0.52917 1.69333,-1.69334 v -10.84792 q -0.47625,0.79375 -1.32292,1.42875 -0.84666,0.635 -1.79916,1.32292 -0.9525,0.635 -1.85209,1.42875 -0.84666,0.79375 -1.37583,1.95792 -0.52917,1.16416 -0.52917,2.80458 0,2.06375 0.89959,3.06917 0.89958,1.00542 2.38125,1.00542 z"
               style="-inkscape-font-specification:'Playfair Display Bold';fill:#f8f9fa;stroke:none;fill-opacity:1"
               id="path126235" />
            <path
               d="m 369.85572,222.32921 q 2.2225,0 3.86292,0.58209 1.69334,0.52916 2.43417,1.05833 1.79917,1.21708 2.2225,-1.5875 h 1.11125 q -0.10583,1.48167 -0.15875,3.65125 -0.0529,2.11667 -0.0529,5.66209 h -1.11125 q -0.26458,-1.95792 -1.00541,-3.86292 -0.74084,-1.905 -2.16959,-3.12209 -1.37583,-1.21708 -3.59833,-1.21708 -1.53459,0 -2.59292,0.89958 -1.05834,0.84667 -1.05834,2.48709 0,1.5875 0.95251,2.80458 0.9525,1.16417 2.43416,2.27542 1.53459,1.05833 3.17501,2.27542 1.74625,1.32292 3.175,2.64583 1.42875,1.27 2.27542,2.80459 0.84666,1.53458 0.84666,3.65125 0,2.38125 -1.37583,4.18042 -1.37584,1.74625 -3.65125,2.69875 -2.22251,0.9525 -4.97417,0.9525 -1.5875,0 -2.85751,-0.3175 -1.21708,-0.3175 -2.11666,-0.79375 -0.68792,-0.3175 -1.32292,-0.58208 -0.58208,-0.3175 -1.11125,-0.52917 -0.52917,-0.15875 -0.9525,0.37042 -0.37042,0.52916 -0.58209,1.48167 h -1.11125 q 0.10584,-1.69334 0.15875,-4.12751 0.0529,-2.43417 0.0529,-6.45583 h 1.11125 q 0.3175,2.8575 1.16417,5.08 0.84667,2.16958 2.27542,3.43958 1.48166,1.21709 3.70417,1.21709 0.89958,0 1.74625,-0.37042 0.84666,-0.37042 1.37583,-1.21708 0.58208,-0.84667 0.58208,-2.16959 0,-2.32833 -1.53458,-3.86292 -1.48167,-1.53458 -3.81,-3.33375 -1.69334,-1.37583 -3.22792,-2.69875 -1.48167,-1.37583 -2.43417,-2.96334 -0.9525,-1.64041 -0.9525,-3.70416 0,-2.38126 1.27,-4.02167 1.27,-1.64042 3.33375,-2.43417 2.11667,-0.84667 4.49792,-0.84667 z"
               style="-inkscape-font-specification:'Playfair Display Bold';fill:#f8f9fa;stroke:none;fill-opacity:1"
               id="path126237" />
            <path
               d="m 395.62617,222.32921 q 2.2225,0 3.86292,0.58209 1.69333,0.52916 2.43417,1.05833 1.79916,1.21708 2.2225,-1.5875 h 1.11125 q -0.10584,1.48167 -0.15875,3.65125 -0.0529,2.11667 -0.0529,5.66209 h -1.11125 q -0.26458,-1.95792 -1.00542,-3.86292 -0.74083,-1.905 -2.16958,-3.12209 -1.37584,-1.21708 -3.59834,-1.21708 -1.53458,0 -2.59291,0.89958 -1.05834,0.84667 -1.05834,2.48709 0,1.5875 0.9525,2.80458 0.9525,1.16417 2.43417,2.27542 1.53458,1.05833 3.175,2.27542 1.74625,1.32292 3.175,2.64583 1.42875,1.27 2.27542,2.80459 0.84667,1.53458 0.84667,3.65125 0,2.38125 -1.37584,4.18042 -1.37583,1.74625 -3.65125,2.69875 -2.2225,0.9525 -4.97417,0.9525 -1.5875,0 -2.8575,-0.3175 -1.21708,-0.3175 -2.11667,-0.79375 -0.68791,-0.3175 -1.32291,-0.58208 -0.58209,-0.3175 -1.11125,-0.52917 -0.52917,-0.15875 -0.95251,0.37042 -0.37041,0.52916 -0.58208,1.48167 h -1.11125 q 0.10583,-1.69334 0.15875,-4.12751 0.0529,-2.43417 0.0529,-6.45583 h 1.11125 q 0.3175,2.8575 1.16417,5.08 0.84666,2.16958 2.27541,3.43958 1.48167,1.21709 3.70417,1.21709 0.89959,0 1.74625,-0.37042 0.84667,-0.37042 1.37584,-1.21708 0.58208,-0.84667 0.58208,-2.16959 0,-2.32833 -1.53458,-3.86292 -1.48167,-1.53458 -3.81001,-3.33375 -1.69333,-1.37583 -3.22791,-2.69875 -1.48167,-1.37583 -2.43417,-2.96334 -0.9525,-1.64041 -0.9525,-3.70416 0,-2.38126 1.27,-4.02167 1.27,-1.64042 3.33375,-2.43417 2.11667,-0.84667 4.49792,-0.84667 z"
               style="-inkscape-font-specification:'Playfair Display Bold';fill:#f8f9fa;stroke:none;fill-opacity:1"
               id="path126239" />
            <path
               d="m 418.22158,250.7984 q -2.38125,0 -3.96875,-0.89959 -1.5875,-0.89958 -2.32833,-2.38125 -0.74084,-1.53458 -0.74084,-3.33375 0,-2.27542 1.00542,-3.70417 1.05833,-1.42875 2.69875,-2.32834 1.64042,-0.89958 3.43959,-1.48166 1.85208,-0.58209 3.4925,-1.11125 1.69333,-0.58209 2.69875,-1.32292 1.05833,-0.79375 1.05833,-2.01084 v -4.1275 q 0,-1.37583 -0.47625,-2.43417 -0.42333,-1.11125 -1.37583,-1.69333 -0.89958,-0.58208 -2.38125,-0.58208 -1.05834,0 -2.11667,0.3175 -1.05833,0.26458 -1.74625,0.9525 1.48167,0.52916 2.27542,1.64041 0.84666,1.05834 0.84666,2.43417 0,1.79917 -1.27,2.8575 -1.21708,1.05834 -2.91041,1.05834 -1.90501,0 -2.91042,-1.16417 -0.9525,-1.21708 -0.9525,-2.91042 0,-1.53458 0.74083,-2.54 0.79375,-1.00542 2.16959,-1.905 1.48166,-0.84667 3.54541,-1.32292 2.11667,-0.47625 4.55084,-0.47625 2.43417,0 4.39209,0.52917 1.95791,0.47625 3.28083,1.79917 1.21709,1.21708 1.5875,3.01625 0.37042,1.74625 0.37042,4.445 v 14.39334 q 0,1.32292 0.26458,1.85209 0.26459,0.47625 0.89959,0.47625 0.47625,0 0.89958,-0.26459 0.47625,-0.26458 1.00542,-0.635 l 0.52916,0.89959 q -1.11125,0.9525 -2.59291,1.48167 -1.42875,0.47625 -3.22792,0.47625 -1.95792,0 -3.12209,-0.52917 -1.16416,-0.58209 -1.69333,-1.53459 -0.47625,-0.9525 -0.47625,-2.2225 -1.27,2.01084 -3.06917,3.175 -1.79917,1.11126 -4.39209,1.11126 z m 3.75709,-3.38667 q 1.05833,0 1.905,-0.47625 0.89958,-0.52917 1.69333,-1.69334 v -10.84792 q -0.47625,0.79375 -1.32291,1.42875 -0.84667,0.635 -1.79917,1.32292 -0.9525,0.635 -1.85209,1.42875 -0.84666,0.79375 -1.37583,1.95792 -0.52917,1.16416 -0.52917,2.80458 0,2.06375 0.89959,3.06917 0.89958,1.00542 2.38125,1.00542 z"
               style="-inkscape-font-specification:'Playfair Display Bold';fill:#f8f9fa;stroke:none;fill-opacity:1"
               id="path126241" />
            <path
               d="m 457.80327,222.32921 q 4.1275,0 6.82626,3.38667 2.75166,3.33375 2.75166,10.31876 0,5.50333 -1.69333,8.83709 -1.64042,3.33375 -4.39209,4.81541 -2.75166,1.48167 -6.0325,1.48167 -2.16958,0 -4.02167,-0.74083 -1.85208,-0.74084 -3.175,-2.43417 l 0.74083,-0.26458 q 0.9525,1.16416 2.2225,1.74625 1.32292,0.58208 2.59292,0.58208 2.91042,0 4.33917,-3.28083 1.42875,-3.28084 1.42875,-10.00126 0,-4.55084 -0.58208,-7.19667 -0.52917,-2.69875 -1.5875,-3.81 -1.05834,-1.16417 -2.54,-1.16417 -1.85209,0 -3.38667,1.53458 -1.53459,1.48167 -1.74625,4.18042 l -0.26459,-1.85208 q 0.9525,-3.01625 3.22792,-4.55084 2.27542,-1.5875 5.29167,-1.5875 z m -8.09625,-13.28209 v 40.32252 q -1.32292,-0.21166 -2.69876,0 -1.37583,0.21167 -2.54,0.74084 -1.16416,0.47625 -1.95791,1.16417 l -0.79375,-0.47625 q 0.21166,-0.74084 0.26458,-1.48167 0.10583,-0.74084 0.10583,-1.48167 v -32.43794 q 0,-2.38125 -0.74083,-3.4925 -0.68792,-1.16417 -2.64584,-1.16417 v -1.11125 q 1.69334,0.15875 3.28084,0.15875 2.16958,0 4.1275,-0.15875 1.95792,-0.21166 3.59834,-0.58208 z"
               style="-inkscape-font-specification:'Playfair Display Bold';fill:#f8f9fa;stroke:none;fill-opacity:1"
               id="path126243" />
          </g>
          <path
             style="color:#000000;fill:#f8f9fa;stroke-linecap:round;stroke-linejoin:round;-inkscape-stroke:none;stroke:none;fill-opacity:1"
             d="m 68.263672,0 a 2.148975,2.148975 0 0 0 0,4.296875 H 199.14453 330.02344 460.90234 A 2.148975,2.148975 0 0 0 460.90234,0 H 330.02344 199.14453 Z"
             id="path159090" />
          <path
             style="color:#000000;fill:#f8f9fa;stroke-linecap:round;stroke-linejoin:round;-inkscape-stroke:none;stroke:none;fill-opacity:1"
             d="m 68.263672,90.085937 a 2.1494141,2.1494141 0 0 0 0,4.298829 h 130.880858 130.87891 130.8789 a 2.1494141,2.1494141 0 0 0 0,-4.298829 H 330.02344 199.14453 Z"
             id="path159314" />
        </g>
        <g
           aria-label="DOCTOR"
           id="text160212"
           style="font-size:18.5208px;letter-spacing:5.29167px;fill:#f8f9fa;stroke-width:0.264583;stroke:none;fill-opacity:1"
           transform="matrix(1.0339677,0,0,0.9718189,36.236126,30.801958)">
          <path
             d="m 180.63164,285.36246 q 0,3.35227 -1.90764,5.05618 -1.88912,1.68539 -5.31547,1.68539 h -3.7412 v -13.22385 h 4.14866 q 2.07433,0 3.59303,0.74084 1.53723,0.74083 2.37067,2.18545 0.85195,1.4261 0.85195,3.55599 z m -2.90776,0.0741 q 0,-2.20398 -0.96308,-3.22262 -0.96309,-1.03717 -2.79664,-1.03717 h -1.50019 v 8.61217 h 1.20385 q 4.05606,0 4.05606,-4.35238 z"
             style="-inkscape-font-specification:'Noto Sans Bold';fill:#f8f9fa;stroke:none;fill-opacity:1"
             id="path208333" />
          <path
             d="m 200.66586,285.47359 q 0,2.05581 -0.68526,3.59303 -0.66675,1.51871 -2.05581,2.37067 -1.38906,0.85195 -3.556,0.85195 -2.14841,0 -3.55599,-0.85195 -1.38906,-0.85196 -2.07433,-2.38919 -0.66675,-1.53722 -0.66675,-3.59303 0,-2.05581 0.66675,-3.57452 0.68527,-1.5187 2.07433,-2.35214 1.40758,-0.85196 3.57451,-0.85196 2.14842,0 3.53748,0.85196 1.38906,0.83344 2.05581,2.37066 0.68526,1.51871 0.68526,3.57452 z m -9.64933,0 q 0,2.07433 0.79639,3.27818 0.7964,1.18533 2.55587,1.18533 1.79652,0 2.57439,-1.18533 0.77788,-1.20385 0.77788,-3.27818 0,-2.09285 -0.77788,-3.27818 -0.77787,-1.18533 -2.55587,-1.18533 -1.77799,0 -2.57439,1.18533 -0.79639,1.18533 -0.79639,3.27818 z"
             style="-inkscape-font-specification:'Noto Sans Bold';fill:#f8f9fa;stroke:none;fill-opacity:1"
             id="path208335" />
          <path
             d="m 214.3104,281.0286 q -1.6113,0 -2.46326,1.20385 -0.85196,1.20385 -0.85196,3.2967 0,2.11137 0.77788,3.27818 0.79639,1.14829 2.53734,1.14829 0.81492,0 1.61131,-0.18521 0.81492,-0.1852 1.75948,-0.51858 v 2.35214 q -0.87048,0.3519 -1.72243,0.51859 -0.85196,0.16668 -1.90765,0.16668 -2.03728,0 -3.37078,-0.83343 -1.31498,-0.85196 -1.94469,-2.37067 -0.6297,-1.53722 -0.6297,-3.57451 0,-2.00025 0.72231,-3.53747 0.72231,-1.53723 2.09285,-2.40771 1.38906,-0.87047 3.3893,-0.87047 0.98161,0 1.96321,0.25929 1.00012,0.24077 1.90764,0.66675 l -0.90752,2.27805 q -0.74083,-0.35189 -1.50018,-0.61118 -0.74083,-0.25929 -1.46315,-0.25929 z"
             style="-inkscape-font-specification:'Noto Sans Bold';fill:#f8f9fa;stroke:none;fill-opacity:1"
             id="path208337" />
          <path
             d="m 230.88123,292.10403 h -2.79664 V 281.2138 h -3.59304 v -2.33362 h 9.98271 v 2.33362 h -3.59303 z"
             style="-inkscape-font-specification:'Noto Sans Bold';fill:#f8f9fa;stroke:none;fill-opacity:1"
             id="path208339" />
          <path
             d="m 253.43425,285.47359 q 0,2.05581 -0.68527,3.59303 -0.66675,1.51871 -2.05581,2.37067 -1.38906,0.85195 -3.55599,0.85195 -2.14841,0 -3.556,-0.85195 -1.38906,-0.85196 -2.07433,-2.38919 -0.66674,-1.53722 -0.66674,-3.59303 0,-2.05581 0.66674,-3.57452 0.68527,-1.5187 2.07433,-2.35214 1.40759,-0.85196 3.57452,-0.85196 2.14841,0 3.53747,0.85196 1.38906,0.83344 2.05581,2.37066 0.68527,1.51871 0.68527,3.57452 z m -9.64934,0 q 0,2.07433 0.7964,3.27818 0.79639,1.18533 2.55587,1.18533 1.79652,0 2.57439,-1.18533 0.77787,-1.20385 0.77787,-3.27818 0,-2.09285 -0.77787,-3.27818 -0.77787,-1.18533 -2.55587,-1.18533 -1.778,0 -2.57439,1.18533 -0.7964,1.18533 -0.7964,3.27818 z"
             style="-inkscape-font-specification:'Noto Sans Bold';fill:#f8f9fa;stroke:none;fill-opacity:1"
             id="path208341" />
          <path
             d="m 265.31932,278.88018 q 2.70403,0 3.98197,0.98161 1.29645,0.9816 1.29645,2.98184 0,0.90752 -0.35189,1.59279 -0.33338,0.66675 -0.90752,1.14829 -0.55562,0.46302 -1.20385,0.75936 l 3.88937,5.75996 h -3.1115 l -3.14854,-5.07469 h -1.50018 v 5.07469 h -2.79664 v -13.22385 z m -0.20373,2.29658 h -0.85196 v 3.57452 h 0.90752 q 1.38906,0 1.98172,-0.46302 0.61119,-0.46302 0.61119,-1.37054 0,-0.94456 -0.64823,-1.3335 -0.6297,-0.40746 -2.00024,-0.40746 z"
             style="-inkscape-font-specification:'Noto Sans Bold';fill:#f8f9fa;stroke:none;fill-opacity:1"
             id="path208343" />
        </g>
        <g
           aria-label="PLASTIC SURGEON"
           id="text161338"
           style="font-size:18.5208px;letter-spacing:5.29167px;fill:#f8f9fa;stroke-width:0.264583;stroke:none;fill-opacity:1"
           transform="matrix(0.99061341,0,0,0.9718189,-81.607406,19.853386)">
          <path
             d="m 233.50314,428.9967 q 2.55587,0 3.72268,1.11125 1.18533,1.09272 1.18533,3.01889 0,1.14829 -0.48154,2.16693 -0.48154,1.00012 -1.61131,1.61131 -1.11125,0.61119 -3.03741,0.61119 h -1.20385 v 4.70428 H 229.2804 V 428.9967 Z m -0.14817,2.29658 h -1.27793 v 3.92641 h 0.92604 q 1.18533,0 1.8706,-0.46302 0.70379,-0.48154 0.70379,-1.53723 0,-1.92616 -2.2225,-1.92616 z"
             style="-inkscape-font-specification:'Noto Sans Bold';fill:#f8f9fa;stroke:none;fill-opacity:1"
             id="path208286" />
          <path
             d="M 246.2031,442.22055 V 428.9967 h 2.79664 v 10.90875 h 5.37103 v 2.3151 z"
             style="-inkscape-font-specification:'Noto Sans Bold';fill:#f8f9fa;stroke:none;fill-opacity:1"
             id="path208288" />
          <path
             d="m 270.05258,442.22055 -0.96308,-3.14854 h -4.81541 l -0.96308,3.14854 h -3.01889 l 4.66724,-13.27941 h 3.42635 l 4.68576,13.27941 z m -2.59291,-8.57513 q -0.0926,-0.31485 -0.24077,-0.79639 -0.14817,-0.48154 -0.29633,-0.98161 -0.14817,-0.50006 -0.24077,-0.87047 -0.0926,0.37041 -0.25929,0.92604 -0.14817,0.5371 -0.29634,1.03716 -0.12964,0.48154 -0.20373,0.68527 l -0.94456,3.07445 h 3.44487 z"
             style="-inkscape-font-specification:'Noto Sans Bold';fill:#f8f9fa;stroke:none;fill-opacity:1"
             id="path208290" />
          <path
             d="m 287.82725,438.55343 q 0,1.75948 -1.27794,2.81516 -1.25941,1.03717 -3.59303,1.03717 -2.09285,0 -3.7412,-0.7964 v -2.61143 q 0.94456,0.40746 1.94468,0.75935 1.01865,0.33338 2.01877,0.33338 1.03716,0 1.46314,-0.38894 0.4445,-0.40746 0.4445,-1.01864 0,-0.50006 -0.35189,-0.85196 -0.33338,-0.35189 -0.90752,-0.64823 -0.57415,-0.31485 -1.31498,-0.66675 -0.46302,-0.22225 -1.00012,-0.51858 -0.53711,-0.31485 -1.03717,-0.75935 -0.48154,-0.46302 -0.79639,-1.11125 -0.31486,-0.64823 -0.31486,-1.55575 0,-1.77799 1.20386,-2.7596 1.20385,-1.00012 3.27818,-1.00012 1.03716,0 1.9632,0.24077 0.94456,0.24077 1.96321,0.68527 l -0.90752,2.18546 q -0.90752,-0.37042 -1.62983,-0.57415 -0.72231,-0.20373 -1.48167,-0.20373 -0.79639,0 -1.22237,0.37042 -0.42598,0.37041 -0.42598,0.96308 0,0.70379 0.62971,1.11125 0.62971,0.40746 1.8706,1.00012 1.01864,0.48154 1.72243,1.00012 0.72232,0.51859 1.11125,1.22238 0.38894,0.70379 0.38894,1.74095 z"
             style="-inkscape-font-specification:'Noto Sans Bold';fill:#f8f9fa;stroke:none;fill-opacity:1"
             id="path208292" />
          <path
             d="m 300.61982,442.22055 h -2.79664 v -10.89023 h -3.59304 v -2.33362 h 9.98271 v 2.33362 h -3.59303 z"
             style="-inkscape-font-specification:'Noto Sans Bold';fill:#f8f9fa;stroke:none;fill-opacity:1"
             id="path208294" />
          <path
             d="m 316.48683,442.22055 h -6.01926 v -1.59279 l 1.61131,-0.74083 v -8.55661 l -1.61131,-0.74083 v -1.59279 h 6.01926 v 1.59279 l -1.61131,0.74083 v 8.55661 l 1.61131,0.74083 z"
             style="-inkscape-font-specification:'Noto Sans Bold';fill:#f8f9fa;stroke:none;fill-opacity:1"
             id="path208296" />
          <path
             d="m 329.64984,431.14511 q -1.61131,0 -2.46326,1.20385 -0.85196,1.20386 -0.85196,3.29671 0,2.11137 0.77787,3.27818 0.7964,1.14829 2.53735,1.14829 0.81492,0 1.61131,-0.18521 0.81492,-0.18521 1.75948,-0.51858 v 2.35214 q -0.87048,0.35189 -1.72243,0.51858 -0.85196,0.16669 -1.90765,0.16669 -2.03728,0 -3.37078,-0.83344 -1.31498,-0.85195 -1.94469,-2.37066 -0.6297,-1.53723 -0.6297,-3.57451 0,-2.00025 0.72231,-3.53748 0.72231,-1.53722 2.09285,-2.4077 1.38906,-0.87048 3.3893,-0.87048 0.98161,0 1.96321,0.25929 1.00012,0.24077 1.90764,0.66675 l -0.90752,2.27806 q -0.74083,-0.3519 -1.50018,-0.61119 -0.74083,-0.25929 -1.46315,-0.25929 z"
             style="-inkscape-font-specification:'Noto Sans Bold';fill:#f8f9fa;stroke:none;fill-opacity:1"
             id="path208298" />
          <path
             d="m 359.03175,438.55343 q 0,1.75948 -1.27794,2.81516 -1.25941,1.03717 -3.59303,1.03717 -2.09285,0 -3.7412,-0.7964 v -2.61143 q 0.94456,0.40746 1.94468,0.75935 1.01864,0.33338 2.01877,0.33338 1.03716,0 1.46314,-0.38894 0.4445,-0.40746 0.4445,-1.01864 0,-0.50006 -0.3519,-0.85196 -0.33337,-0.35189 -0.90751,-0.64823 -0.57415,-0.31485 -1.31498,-0.66675 -0.46302,-0.22225 -1.00012,-0.51858 -0.53711,-0.31485 -1.03717,-0.75935 -0.48154,-0.46302 -0.79639,-1.11125 -0.31486,-0.64823 -0.31486,-1.55575 0,-1.77799 1.20385,-2.7596 1.20386,-1.00012 3.27819,-1.00012 1.03716,0 1.9632,0.24077 0.94456,0.24077 1.96321,0.68527 l -0.90752,2.18546 q -0.90752,-0.37042 -1.62983,-0.57415 -0.72232,-0.20373 -1.48167,-0.20373 -0.79639,0 -1.22237,0.37042 -0.42598,0.37041 -0.42598,0.96308 0,0.70379 0.62971,1.11125 0.62971,0.40746 1.8706,1.00012 1.01864,0.48154 1.72243,1.00012 0.72231,0.51859 1.11125,1.22238 0.38894,0.70379 0.38894,1.74095 z"
             style="-inkscape-font-specification:'Noto Sans Bold';fill:#f8f9fa;stroke:none;fill-opacity:1"
             id="path208300" />
          <path
             d="m 377.49168,437.55331 q 0,1.37054 -0.61119,2.48179 -0.59266,1.09272 -1.81503,1.74095 -1.20386,0.62971 -3.05594,0.62971 -2.62995,0 -4.00049,-1.3335 -1.37054,-1.35202 -1.37054,-3.55599 v -8.51957 h 2.79664 v 8.09359 q 0,1.62983 0.66675,2.29658 0.66675,0.66675 1.98173,0.66675 1.37054,0 1.98172,-0.72231 0.62971,-0.72232 0.62971,-2.25954 v -8.07507 h 2.79664 z"
             style="-inkscape-font-specification:'Noto Sans Bold';fill:#f8f9fa;stroke:none;fill-opacity:1"
             id="path208302" />
          <path
             d="m 389.87679,428.9967 q 2.70403,0 3.98197,0.9816 1.29646,0.9816 1.29646,2.98185 0,0.90752 -0.3519,1.59279 -0.33337,0.66675 -0.90752,1.14829 -0.55562,0.46302 -1.20385,0.75935 l 3.88937,5.75997 h -3.1115 l -3.14853,-5.0747 h -1.50019 v 5.0747 h -2.79664 V 428.9967 Z m -0.20373,2.29658 h -0.85196 v 3.57451 h 0.90752 q 1.38906,0 1.98173,-0.46302 0.61118,-0.46302 0.61118,-1.37054 0,-0.94456 -0.64822,-1.33349 -0.62971,-0.40746 -2.00025,-0.40746 z"
             style="-inkscape-font-specification:'Noto Sans Bold';fill:#f8f9fa;stroke:none;fill-opacity:1"
             id="path208304" />
          <path
             d="m 408.55899,434.79371 h 5.24139 v 6.8527 q -1.03716,0.35189 -2.16693,0.55562 -1.11125,0.20373 -2.53735,0.20373 -2.96333,0 -4.55612,-1.74096 -1.59279,-1.74095 -1.59279,-5.0747 0,-2.07433 0.7964,-3.59303 0.81491,-1.51871 2.35214,-2.35214 1.53722,-0.83344 3.75972,-0.83344 1.05569,0 2.07433,0.22225 1.01864,0.22225 1.85208,0.59267 l -0.92604,2.24101 q -0.61119,-0.31485 -1.38906,-0.51858 -0.77787,-0.20373 -1.62983,-0.20373 -1.22237,0 -2.12989,0.55563 -0.889,0.55562 -1.38906,1.57426 -0.48154,1.00013 -0.48154,2.37067 0,1.29645 0.35189,2.29658 0.3519,1.00012 1.11125,1.57426 0.75935,0.55563 1.98173,0.55563 0.59266,0 1.00012,-0.0556 0.42598,-0.0556 0.77787,-0.12965 v -2.7596 h -2.50031 z"
             style="-inkscape-font-specification:'Noto Sans Bold';fill:#f8f9fa;stroke:none;fill-opacity:1"
             id="path208306" />
          <path
             d="m 429.85262,442.22055 h -7.61205 V 428.9967 h 7.61205 v 2.29658 h -4.81541 v 2.90776 h 4.48204 v 2.29658 h -4.48204 v 3.40783 h 4.81541 z"
             style="-inkscape-font-specification:'Noto Sans Bold';fill:#f8f9fa;stroke:none;fill-opacity:1"
             id="path208308" />
          <path
             d="m 449.90536,435.5901 q 0,2.05581 -0.68526,3.59304 -0.66675,1.5187 -2.05581,2.37066 -1.38906,0.85196 -3.556,0.85196 -2.14841,0 -3.55599,-0.85196 -1.38906,-0.85196 -2.07433,-2.38918 -0.66675,-1.53723 -0.66675,-3.59304 0,-2.05581 0.66675,-3.57451 0.68527,-1.51871 2.07433,-2.35214 1.40758,-0.85196 3.57451,-0.85196 2.14842,0 3.53748,0.85196 1.38906,0.83343 2.05581,2.37066 0.68526,1.51871 0.68526,3.57451 z m -9.64933,0 q 0,2.07433 0.79639,3.27819 0.7964,1.18533 2.55587,1.18533 1.79652,0 2.57439,-1.18533 0.77788,-1.20386 0.77788,-3.27819 0,-2.09285 -0.77788,-3.27818 -0.77787,-1.18533 -2.55587,-1.18533 -1.77799,0 -2.57439,1.18533 -0.79639,1.18533 -0.79639,3.27818 z"
             style="-inkscape-font-specification:'Noto Sans Bold';fill:#f8f9fa;stroke:none;fill-opacity:1"
             id="path208310" />
          <path
             d="m 469.66176,442.22055 h -3.55599 l -5.75997,-10.00123 h -0.0741 q 0.037,0.94456 0.0741,1.88912 0.0556,0.94456 0.0926,1.88912 v 6.22299 h -2.5003 V 428.9967 h 3.53747 l 5.74145,9.90863 h 0.0556 q -0.0185,-0.92604 -0.0556,-1.83356 -0.037,-0.90752 -0.0741,-1.81504 v -6.26003 h 2.51883 z"
             style="-inkscape-font-specification:'Noto Sans Bold';fill:#f8f9fa;stroke:none;fill-opacity:1"
             id="path208312" />
        </g>
      </g>
    </g>
  </g>
</svg>
