<?xml version="1.0" encoding="UTF-8" standalone="no"?>
<!-- Created with Inkscape (http://www.inkscape.org/) -->

<svg
   width="200"
   height="50"
   viewBox="0 0 52.916665 13.229167"
   version="1.1"
   id="svg5"
   inkscape:version="1.1.2 (0a00cf5339, 2022-02-04)"
   sodipodi:docname="newp.svg"
   xmlns:inkscape="http://www.inkscape.org/namespaces/inkscape"
   xmlns:sodipodi="http://sodipodi.sourceforge.net/DTD/sodipodi-0.dtd"
   xmlns="http://www.w3.org/2000/svg"
   xmlns:svg="http://www.w3.org/2000/svg">
  <sodipodi:namedview
     id="namedview7"
     pagecolor="#ffffff"
     bordercolor="#666666"
     borderopacity="1.0"
     inkscape:pageshadow="2"
     inkscape:pageopacity="0.0"
     inkscape:pagecheckerboard="0"
     inkscape:document-units="px"
     showgrid="true"
     units="px"
     width="400px"
     inkscape:zoom="2.63058"
     inkscape:cx="67.855758"
     inkscape:cy="70.516768"
     inkscape:window-width="1920"
     inkscape:window-height="1016"
     inkscape:window-x="0"
     inkscape:window-y="0"
     inkscape:window-maximized="1"
     inkscape:current-layer="layer1">
    <inkscape:grid
       type="xygrid"
       id="grid824" />
  </sodipodi:namedview>
  <defs
     id="defs2" />
  <g
     inkscape:label="Layer 1"
     inkscape:groupmode="layer"
     id="layer1">
    <rect
       style="fill:#03506f;fill-opacity:1;stroke:none;stroke-width:0.24153"
       id="rect1158"
       width="13.229167"
       height="13.229167"
       x="0"
       y="-7.1054274e-15" />
    <rect
       style="fill:#03506f;fill-opacity:1;stroke:none;stroke-width:0.418342"
       id="rect1348"
       width="39.6875"
       height="13.229167"
       x="13.229167"
       y="-4.4408921e-15" />
    <text
       xml:space="preserve"
       style="font-style:normal;font-weight:normal;font-size:3.96875px;line-height:1.25;font-family:sans-serif;fill:#f8f9fa;fill-opacity:1;stroke:none;stroke-width:0.264583"
       x="13.233135"
       y="8.0750837"
       id="text7366"><tspan
         sodipodi:role="line"
         id="tspan7364"
         style="font-style:normal;font-variant:normal;font-weight:500;font-stretch:normal;font-size:3.96875px;font-family:Montserrat;-inkscape-font-specification:'Montserrat Medium';fill:#f8f9fa;fill-opacity:1;stroke-width:0.264583"
         x="13.233135"
         y="8.0750837">Add new record</tspan></text>
    <g
       id="g43004"
       style="fill:#f8f9fa;fill-opacity:1"
       transform="matrix(1.5624998,0,0,1.5624998,-38.033849,7.4414064)">
      <path
         d="m 26.722916,1.0583333 c 0,0 -0.264583,0 -0.264583,-0.26458331 0,-0.26458333 0.264583,-1.05833332 1.5875,-1.05833332 1.322917,0 1.5875,0.79374999 1.5875,1.05833332 0,0.26458331 -0.264583,0.26458331 -0.264583,0.26458331 z m 1.322917,-1.58749996 a 0.79374999,0.79374999 0 1 0 0,-1.58749994 0.79374999,0.79374999 0 0 0 0,1.58749994 z"
         id="path20001"
         style="fill:#f8f9fa;fill-opacity:1;stroke-width:0.264583" />
      <path
         fill-rule="evenodd"
         d="M 30.030208,-1.3229166 A 0.13229166,0.13229166 0 0 1 30.1625,-1.190625 v 0.39687501 h 0.396875 a 0.13229166,0.13229166 0 0 1 0,0.26458333 H 30.1625 v 0.396875 a 0.132292,0.132292 0 0 1 -0.264584,0 v -0.396875 h -0.396875 a 0.13229166,0.13229166 0 0 1 0,-0.26458333 h 0.396875 V -1.190625 a 0.13229166,0.13229166 0 0 1 0.132292,-0.1322916 z"
         id="path20003"
         style="fill:#f8f9fa;fill-opacity:1;stroke-width:0.264583" />
    </g>
  </g>
</svg>
