<?xml version="1.0" encoding="UTF-8" standalone="no"?>
<!-- Created with Inkscape (http://www.inkscape.org/) -->

<svg
   width="200"
   height="50"
   viewBox="0 0 52.916665 13.229167"
   version="1.1"
   id="svg5"
   sodipodi:docname="pma.svg"
   inkscape:version="1.1.2 (0a00cf5339, 2022-02-04)"
   xmlns:inkscape="http://www.inkscape.org/namespaces/inkscape"
   xmlns:sodipodi="http://sodipodi.sourceforge.net/DTD/sodipodi-0.dtd"
   xmlns="http://www.w3.org/2000/svg"
   xmlns:svg="http://www.w3.org/2000/svg">
  <sodipodi:namedview
     id="namedview7"
     pagecolor="#ffffff"
     bordercolor="#666666"
     borderopacity="1.0"
     inkscape:pageshadow="2"
     inkscape:pageopacity="0.0"
     inkscape:pagecheckerboard="0"
     inkscape:document-units="px"
     showgrid="true"
     units="px"
     width="400px"
     inkscape:zoom="3.720202"
     inkscape:cx="69.216672"
     inkscape:cy="35.07874"
     inkscape:window-width="1920"
     inkscape:window-height="1016"
     inkscape:window-x="0"
     inkscape:window-y="0"
     inkscape:window-maximized="1"
     inkscape:current-layer="layer1">
    <inkscape:grid
       type="xygrid"
       id="grid824" />
  </sodipodi:namedview>
  <defs
     id="defs2" />
  <g
     inkscape:label="Layer 1"
     inkscape:groupmode="layer"
     id="layer1">
    <rect
       style="fill:#03506f;fill-opacity:1;stroke:none;stroke-width:0.24153"
       id="rect1158"
       width="13.229167"
       height="13.229167"
       x="0"
       y="-7.1054274e-15" />
    <rect
       style="fill:#03506f;fill-opacity:1;stroke:none;stroke-width:0.418342"
       id="rect1348"
       width="39.6875"
       height="13.229167"
       x="13.229167"
       y="-3.5527137e-15" />
    <text
       xml:space="preserve"
       style="font-style:normal;font-weight:normal;font-size:3.96875px;line-height:1.25;font-family:sans-serif;fill:#f8f9fa;fill-opacity:1;stroke:none;stroke-width:0.264583"
       x="12.812448"
       y="8.1048489"
       id="text7366"><tspan
         sodipodi:role="line"
         id="tspan7364"
         style="font-style:normal;font-variant:normal;font-weight:500;font-stretch:normal;font-size:3.96875px;font-family:Montserrat;-inkscape-font-specification:'Montserrat Medium';fill:#f8f9fa;fill-opacity:1;stroke-width:0.264583"
         x="12.812448"
         y="8.1048489">DB admin</tspan></text>
    <g
       id="g21787"
       transform="matrix(0.11365068,0,0,0.11365068,3.3073487,3.3072919)"
       style="display:inline;fill:#f8f9fa;fill-opacity:1;stroke:none">
      <g
         id="g21730"
         style="fill:#f8f9fa;fill-opacity:1;stroke:none">
        <path
           d="m 31.707,33.07 c -0.87,0.027 -1.74,0.042 -2.606,0.042 -0.869,0 -1.742,-0.014 -2.614,-0.042 C 19.146,32.869 13.296,31.832 9.084,30.353 7.104,29.685 5.409,28.899 4.1,28 v 7.111 0.5 0.5 1.289 c 2.846,2.971 12.394,5.711 25,5.711 12.606,0 22.154,-2.74 25,-5.711 v -1.289 -0.5 -0.5 V 28 c -1.318,0.905 -3.028,1.697 -5.025,2.367 -4.21,1.472 -10.048,2.503 -17.368,2.703 z"
           id="path21722"
           style="fill:#f8f9fa;fill-opacity:1;stroke:none" />
        <path
           d="M 4.1,14.889 V 22 22.5 23 24.289 c 2.638,2.754 11.033,5.31 22.286,5.668 0.115,0.004 0.233,0.005 0.349,0.008 0.326,0.009 0.651,0.018 0.982,0.023 0.457,0.008 0.918,0.012 1.383,0.012 0.465,0 0.926,-0.004 1.383,-0.011 0.33,-0.005 0.656,-0.014 0.982,-0.023 0.116,-0.003 0.234,-0.005 0.349,-0.008 C 43.067,29.599 51.462,27.043 54.1,24.29 V 23 22.5 22 14.889 C 49.233,18.232 38.944,20 29.1,20 19.256,20 8.968,18.232 4.1,14.889 Z"
           id="path21724"
           style="fill:#f8f9fa;fill-opacity:1;stroke:none" />
        <path
           d="M 53.965,8.542 C 52.843,4.241 44.215,0 29.1,0 14.023,0 5.404,4.22 4.247,8.51 4.162,8.657 4.1,8.818 4.1,9 v 0.5 1.806 C 6.937,14.267 16.417,17 29.1,17 c 12.683,0 22.164,-2.733 25,-5.694 V 9.5 9 c 0,-0.168 -0.056,-0.319 -0.135,-0.458 z"
           id="path21726"
           style="fill:#f8f9fa;fill-opacity:1;stroke:none" />
        <path
           d="m 4.1,41 v 8.201 c 0,0.162 0.043,0.315 0.117,0.451 1.181,4.895 11.747,8.549 24.883,8.549 13.106,0 23.655,-3.639 24.875,-8.516 0.08,-0.144 0.125,-0.309 0.125,-0.484 v -8.199 c -4.135,2.911 -12.655,5.199 -25,5.199 -12.346,0 -20.866,-2.29 -25,-5.201 z"
           id="path21728"
           style="fill:#f8f9fa;fill-opacity:1;stroke:none" />
      </g>
      <g
         id="g21732"
         style="fill:#f8f9fa;fill-opacity:1;stroke:none" />
      <g
         id="g21734"
         style="fill:#f8f9fa;fill-opacity:1;stroke:none" />
      <g
         id="g21736"
         style="fill:#f8f9fa;fill-opacity:1;stroke:none" />
      <g
         id="g21738"
         style="fill:#f8f9fa;fill-opacity:1;stroke:none" />
      <g
         id="g21740"
         style="fill:#f8f9fa;fill-opacity:1;stroke:none" />
      <g
         id="g21742"
         style="fill:#f8f9fa;fill-opacity:1;stroke:none" />
      <g
         id="g21744"
         style="fill:#f8f9fa;fill-opacity:1;stroke:none" />
      <g
         id="g21746"
         style="fill:#f8f9fa;fill-opacity:1;stroke:none" />
      <g
         id="g21748"
         style="fill:#f8f9fa;fill-opacity:1;stroke:none" />
      <g
         id="g21750"
         style="fill:#f8f9fa;fill-opacity:1;stroke:none" />
      <g
         id="g21752"
         style="fill:#f8f9fa;fill-opacity:1;stroke:none" />
      <g
         id="g21754"
         style="fill:#f8f9fa;fill-opacity:1;stroke:none" />
      <g
         id="g21756"
         style="fill:#f8f9fa;fill-opacity:1;stroke:none" />
      <g
         id="g21758"
         style="fill:#f8f9fa;fill-opacity:1;stroke:none" />
      <g
         id="g21760"
         style="fill:#f8f9fa;fill-opacity:1;stroke:none" />
    </g>
  </g>
</svg>
