<?xml version="1.0" encoding="UTF-8" standalone="no"?>
<!-- Created with Inkscape (http://www.inkscape.org/) -->

<svg
   width="200"
   height="50"
   viewBox="0 0 52.916665 13.229167"
   version="1.1"
   id="svg5"
   sodipodi:docname="prnt.svg"
   inkscape:version="1.1.2 (0a00cf5339, 2022-02-04)"
   xmlns:inkscape="http://www.inkscape.org/namespaces/inkscape"
   xmlns:sodipodi="http://sodipodi.sourceforge.net/DTD/sodipodi-0.dtd"
   xmlns="http://www.w3.org/2000/svg"
   xmlns:svg="http://www.w3.org/2000/svg">
  <sodipodi:namedview
     id="namedview7"
     pagecolor="#ffffff"
     bordercolor="#666666"
     borderopacity="1.0"
     inkscape:pageshadow="2"
     inkscape:pageopacity="0.0"
     inkscape:pagecheckerboard="0"
     inkscape:document-units="px"
     showgrid="true"
     units="px"
     width="400px"
     inkscape:zoom="3.720202"
     inkscape:cx="78.35596"
     inkscape:cy="57.120554"
     inkscape:window-width="1920"
     inkscape:window-height="1016"
     inkscape:window-x="0"
     inkscape:window-y="0"
     inkscape:window-maximized="1"
     inkscape:current-layer="layer1">
    <inkscape:grid
       type="xygrid"
       id="grid824" />
  </sodipodi:namedview>
  <defs
     id="defs2" />
  <g
     inkscape:label="Layer 1"
     inkscape:groupmode="layer"
     id="layer1">
    <rect
       style="fill:#03506f;fill-opacity:1;stroke:none;stroke-width:0.24153"
       id="rect1158"
       width="13.229167"
       height="13.229167"
       x="0"
       y="-7.1054274e-15" />
    <rect
       style="fill:#03506f;fill-opacity:1;stroke:none;stroke-width:0.418342"
       id="rect1348"
       width="39.6875"
       height="13.229167"
       x="13.229167"
       y="-3.9968029e-15" />
    <text
       xml:space="preserve"
       style="font-style:normal;font-weight:normal;font-size:3.96875px;line-height:1.25;font-family:sans-serif;fill:#f8f9fa;fill-opacity:1;stroke:none;stroke-width:0.264583"
       x="12.812448"
       y="8.1048489"
       id="text7366"><tspan
         sodipodi:role="line"
         id="tspan7364"
         style="font-style:normal;font-variant:normal;font-weight:500;font-stretch:normal;font-size:3.96875px;font-family:Montserrat;-inkscape-font-specification:'Montserrat Medium';fill:#f8f9fa;fill-opacity:1;stroke-width:0.264583"
         x="12.812448"
         y="8.1048489">Print treatment</tspan></text>
    <g
       id="g56149"
       transform="matrix(1.5625001,0,0,1.5625001,-91.777349,7.6481119)"
       style="fill:#f8f9fa;fill-opacity:1">
      <path
         d="m 62.177083,-2.38125 a 0.52916666,0.52916666 0 0 0 -0.529167,0.5291667 V -1.5875 h 2.645833 V -1.8520833 A 0.52916666,0.52916666 0 0 0 63.764583,-2.38125 Z m 1.5875,2.11666667 h -1.5875 A 0.26458333,0.26458333 0 0 0 61.912499,0 v 0.79374999 a 0.26458333,0.26458333 0 0 0 0.264584,0.26458331 h 1.5875 A 0.26458333,0.26458333 0 0 0 64.029166,0.79374999 V 0 a 0.26458333,0.26458333 0 0 0 -0.264583,-0.26458333 z"
         id="path20133"
         style="fill:#f8f9fa;fill-opacity:1;stroke-width:0.264583" />
      <path
         d="m 60.854166,-0.79374999 a 0.52916666,0.52916666 0 0 1 0.529167,-0.52916661 h 3.175 a 0.52916666,0.52916666 0 0 1 0.529166,0.52916661 V 0 A 0.52916666,0.52916666 0 0 1 64.558333,0.52916666 H 64.293749 V 0 a 0.52916666,0.52916666 0 0 0 -0.529166,-0.52916666 h -1.5875 A 0.52916666,0.52916666 0 0 0 61.647916,0 V 0.52916666 H 61.383333 A 0.52916666,0.52916666 0 0 1 60.854166,0 Z m 0.661458,0.26458333 a 0.13229166,0.13229166 0 1 0 0,-0.26458333 0.13229166,0.13229166 0 0 0 0,0.26458333 z"
         id="path20135"
         style="fill:#f8f9fa;fill-opacity:1;stroke-width:0.264583" />
    </g>
  </g>
</svg>
